<svg width="39" height="39" viewBox="0 0 39 39" fill="none" xmlns="http://www.w3.org/2000/svg">
<g clip-path="url(#clip0_53_294)">
<path d="M20.1094 23.6791C21.1575 23.4067 21.9375 22.461 21.9375 21.3281C21.9375 19.9838 20.8443 18.8906 19.5 18.8906C18.8279 18.8906 18.2812 18.344 18.2812 17.6719C18.2812 16.9997 18.8279 16.4531 19.5 16.4531C20.1721 16.4531 20.7188 16.9997 20.7188 17.6719H21.9375C21.9375 16.539 21.1575 15.5933 20.1094 15.3209V14.0156H18.8906V15.3209C17.8425 15.5933 17.0625 16.539 17.0625 17.6719C17.0625 19.0162 18.1557 20.1094 19.5 20.1094C20.1721 20.1094 20.7188 20.656 20.7188 21.3281C20.7188 22.0003 20.1721 22.5469 19.5 22.5469C18.8279 22.5469 18.2812 22.0003 18.2812 21.3281H17.0625C17.0625 22.461 17.8425 23.4067 18.8906 23.6791V24.9844H20.1094V23.6791Z" fill="black"/>
<path d="M19.5 11.5781C15.132 11.5781 11.5781 15.132 11.5781 19.5H12.7969C12.7969 15.8041 15.8041 12.7969 19.5 12.7969V11.5781Z" fill="black"/>
<path d="M26.2031 19.5C26.2031 23.1959 23.1959 26.2031 19.5 26.2031V27.4219C23.868 27.4219 27.4219 23.868 27.4219 19.5H26.2031Z" fill="black"/>
<path d="M13.1622 4.97485C11.2518 5.80909 9.54613 6.99676 8.09277 8.50435L8.96966 9.35078C10.3121 7.95896 11.8867 6.86209 13.6503 6.09123L13.1622 4.97485Z" fill="black"/>
<path d="M15.6984 4.11572C15.2694 4.22114 14.8428 4.34546 14.4297 4.485L14.8209 5.63977C15.2012 5.51119 15.5948 5.39663 15.9897 5.29852L15.6984 4.11572Z" fill="black"/>
<path d="M18.2333 3.7063C17.8171 3.73921 17.3906 3.79039 16.9658 3.85803L17.1584 5.06155C17.5508 4.99817 17.9445 4.95125 18.3284 4.922L18.2333 3.7063Z" fill="black"/>
<path d="M19.5 1.82812C24.2208 1.82812 28.6583 3.66661 31.9958 7.00416C32.2244 7.23267 32.629 7.23267 32.8575 7.00416L34.125 5.73666V10.3594H29.5023L30.7034 9.1583C30.9416 8.92003 30.9416 8.53491 30.7034 8.29664C27.7107 5.304 23.7321 3.65625 19.5 3.65625V4.875C23.2026 4.875 26.6955 6.24183 29.4017 8.73661L27.6004 10.5379C27.4261 10.7122 27.3737 10.9742 27.4682 11.2021C27.5626 11.43 27.7851 11.5781 28.0312 11.5781H34.7344C35.0708 11.5781 35.3438 11.3057 35.3438 10.9688V4.26562C35.3438 4.01944 35.1951 3.79641 34.9678 3.70256C34.7386 3.60689 34.4778 3.65991 34.3035 3.8348L32.42 5.71837C28.9069 2.41922 24.3427 0.609375 19.5 0.609375C9.08395 0.609375 0.609375 9.08334 0.609375 19.5H1.82812C1.82812 9.75609 9.75548 1.82812 19.5 1.82812Z" fill="black"/>
<path d="M30.9071 30.4956L30.0302 29.6492C28.6878 31.041 27.1131 32.1379 25.3496 32.9087L25.8377 34.0251C27.7481 33.1909 29.4531 32.0032 30.9071 30.4956Z" fill="black"/>
<path d="M23.302 34.8844C23.731 34.779 24.1576 34.6547 24.5707 34.5151L24.1795 33.3604C23.7993 33.4889 23.4056 33.6035 23.0107 33.7016L23.302 34.8844Z" fill="black"/>
<path d="M20.766 35.2937C21.1822 35.2608 21.6087 35.2096 22.0335 35.142L21.8409 33.9385C21.4485 34.0019 21.0548 34.0488 20.6709 34.078L20.766 35.2937Z" fill="black"/>
<path d="M37.1719 19.5C37.1719 29.2439 29.2445 37.1719 19.5 37.1719C14.7792 37.1719 10.3417 35.3334 7.00416 31.9958C6.77564 31.7673 6.37102 31.7673 6.1425 31.9958L4.875 33.2633V28.6406H9.49772L8.29664 29.8417C8.05837 30.08 8.05837 30.4651 8.29664 30.7034C11.2893 33.696 15.2679 35.3438 19.5 35.3438V34.125C15.7974 34.125 12.3045 32.7582 9.59827 30.2634L11.3996 28.4621C11.5739 28.2878 11.6263 28.0258 11.5318 27.7979C11.4374 27.57 11.2149 27.4219 10.9688 27.4219H4.26562C3.92925 27.4219 3.65625 27.6943 3.65625 28.0312V34.7344C3.65625 34.9806 3.80494 35.2036 4.03223 35.2974C4.26014 35.3925 4.52217 35.3395 4.69645 35.1652L6.58003 33.2816C10.0931 36.5808 14.6573 38.3906 19.5 38.3906C29.916 38.3906 38.3906 29.9167 38.3906 19.5H37.1719Z" fill="black"/>
<path d="M29.8594 19.5C29.8594 13.7877 25.2123 9.14062 19.5 9.14062C13.7877 9.14062 9.14062 13.7877 9.14062 19.5C9.14062 25.2123 13.7877 29.8594 19.5 29.8594C25.2123 29.8594 29.8594 25.2123 29.8594 19.5ZM19.5 28.6406C14.4599 28.6406 10.3594 24.5401 10.3594 19.5C10.3594 14.4599 14.4599 10.3594 19.5 10.3594C24.5401 10.3594 28.6406 14.4599 28.6406 19.5C28.6406 24.5401 24.5401 28.6406 19.5 28.6406Z" fill="black"/>
</g>
<defs>
<clipPath id="clip0_53_294">
<rect width="39" height="39" fill="white"/>
</clipPath>
</defs>
</svg>
