<svg width="38" height="38" viewBox="0 0 38 38" fill="none" xmlns="http://www.w3.org/2000/svg">
<g clip-path="url(#clip0_53_246)">
<path d="M34.6154 6.56176C29.3871 5.12919 24.128 2.89855 19.4068 0.11105C19.156 -0.0370165 18.8448 -0.0370165 18.5941 0.11105C13.7366 2.97863 8.76175 5.08859 3.38498 6.56176C3.03764 6.65683 2.79688 6.97256 2.79688 7.33274V15.5002C2.79688 23.9109 6.67695 29.4782 9.93203 32.6674C13.4363 36.1011 17.5184 38 19.0004 38C20.4824 38 24.5644 36.1011 28.0687 32.6674C31.3237 29.4782 35.2035 23.9109 35.2035 15.5002V7.33267C35.2035 6.97256 34.9628 6.65683 34.6154 6.56176ZM33.6049 15.5001C33.6049 23.3556 29.9859 28.5506 26.9498 31.5254C23.5037 34.902 19.8193 36.4012 19.0004 36.4012C18.1816 36.4012 14.4969 34.902 11.0508 31.5254C8.01474 28.5505 4.39562 23.3556 4.39562 15.5001V7.93948C9.53733 6.4796 14.3258 4.44222 19.0006 1.7256C23.5586 4.37016 28.586 6.50884 33.6049 7.93918V15.5001Z" fill="black"/>
<path d="M11.9151 7.85011C11.7533 7.43931 11.2892 7.23751 10.8783 7.39938C9.45034 7.96203 7.98467 8.47993 6.52204 8.93875C6.18873 9.0434 5.96191 9.35215 5.96191 9.70142V12.7882C5.96191 13.2297 6.31987 13.5876 6.76125 13.5876C7.20263 13.5876 7.56058 13.2297 7.56058 12.7882V10.2856C8.87269 9.86106 10.1834 9.39148 11.4643 8.88672C11.8751 8.725 12.0769 8.26091 11.9151 7.85011Z" fill="black"/>
<path d="M13.434 8.0016C13.5412 8.0016 13.6501 7.98 13.7545 7.93443L13.7692 7.92805C14.1736 7.75082 14.3558 7.28005 14.1785 6.87578C14.0012 6.47136 13.5277 6.28841 13.1237 6.4655L13.1108 6.47106C12.7062 6.64778 12.5235 7.11818 12.7002 7.52267C12.8313 7.82296 13.1256 8.0016 13.434 8.0016Z" fill="black"/>
<path d="M28.5238 25.7748C28.1544 25.5333 27.659 25.6372 27.4173 26.0067C26.7586 27.0149 25.9858 27.9803 25.1202 28.8759C24.4083 29.6123 23.6368 30.2987 22.8273 30.9158C22.4763 31.1835 22.4088 31.685 22.6764 32.0362C22.8338 32.2424 23.0718 32.3509 23.3126 32.3509C23.4816 32.3509 23.652 32.2976 23.7967 32.1871C24.6699 31.5213 25.5019 30.7811 26.2694 29.9871C27.2054 29.019 28.0419 27.974 28.7557 26.8812C28.9973 26.5115 28.8933 26.0162 28.5238 25.7748Z" fill="black"/>
<path d="M20.9713 32.1697L20.9254 32.1967C20.5434 32.4179 20.4129 32.9069 20.634 33.2889C20.7822 33.545 21.0505 33.6879 21.3266 33.6879C21.4624 33.6879 21.6003 33.6532 21.7262 33.5801L21.7791 33.549C22.1601 33.3259 22.2881 32.8363 22.065 32.4553C21.8417 32.0745 21.352 31.9468 20.9713 32.1697Z" fill="black"/>
<path d="M13.5521 17.3686C13.0613 16.8777 12.4085 16.6075 11.7143 16.6075C11.02 16.6075 10.3672 16.8778 9.87619 17.3686C8.86288 18.3821 8.86288 20.0312 9.87619 21.0447L14.5962 25.7645C15.0871 26.2553 15.7398 26.5255 16.4341 26.5255C17.1285 26.5255 17.7812 26.2553 18.2722 25.7644L28.1255 15.911C29.1387 14.8972 29.1387 13.2483 28.1254 12.2352C27.6345 11.7443 26.9817 11.4741 26.2873 11.4741C25.593 11.4741 24.9403 11.7444 24.4493 12.2352L16.4341 20.2504L13.5521 17.3686ZM25.5798 13.3657C25.7687 13.1768 26.0201 13.0728 26.2874 13.0728C26.5549 13.0728 26.806 13.1768 26.9951 13.3657C27.3851 13.7557 27.3851 14.3905 26.9949 14.7807L17.1417 24.634C16.9529 24.8229 16.7015 24.9268 16.4341 24.9268C16.1668 24.9268 15.9154 24.8229 15.7265 24.634L11.0066 19.9143C10.6164 19.5241 10.6164 18.8892 11.0065 18.4992C11.1954 18.3103 11.4468 18.2062 11.7142 18.2062C11.9816 18.2062 12.2329 18.3102 12.4217 18.4991L15.8688 21.9462C16.0188 22.0961 16.222 22.1803 16.4341 22.1803C16.6461 22.1803 16.8493 22.0961 16.9992 21.9462L25.5798 13.3657Z" fill="black"/>
</g>
<defs>
<clipPath id="clip0_53_246">
<rect width="38" height="38" fill="white"/>
</clipPath>
</defs>
</svg>
