<svg width="45" height="45" viewBox="0 0 45 45" fill="none" xmlns="http://www.w3.org/2000/svg">
<g clip-path="url(#clip0_53_258)">
<path d="M44.7941 35.8447L35.091 26.1416C35.139 26.1038 35.1895 26.0693 35.2421 26.0382L37.8282 24.6622C38.4896 24.3145 38.9889 23.7222 39.2197 23.0115C39.4505 22.3009 39.3945 21.5282 39.0636 20.8583L37.7755 18.2237C37.6766 18.0229 37.6252 17.802 37.6252 17.5782C37.6252 17.3544 37.6766 17.1335 37.7755 16.9327L39.0636 14.2981C39.3945 13.6282 39.4505 12.8555 39.2197 12.1449C38.9889 11.4342 38.4896 10.8419 37.8282 10.4942L35.2393 9.1196C35.0414 9.01533 34.8701 8.86693 34.7386 8.68587C34.6072 8.50482 34.5192 8.29597 34.4813 8.07546L33.9744 5.18703C33.8483 4.45077 33.4395 3.7929 32.8353 3.35368C32.2311 2.91445 31.4793 2.72861 30.74 2.83578L27.8361 3.2471C27.6146 3.27794 27.3891 3.25808 27.1764 3.18902C26.9637 3.11996 26.7695 3.0035 26.6084 2.84843L24.4991 0.80937C23.9642 0.287634 23.2466 -0.00439453 22.4994 -0.00439453C21.7522 -0.00439453 21.0346 0.287634 20.4997 0.80937L18.3903 2.84843C18.2292 3.0035 18.035 3.11996 17.8224 3.18902C17.6097 3.25808 17.3841 3.27794 17.1627 3.2471L14.2581 2.83578C13.5189 2.72898 12.7672 2.91496 12.1631 3.35413C11.5589 3.79329 11.1501 4.45094 11.0237 5.18703L10.5167 8.07546C10.4789 8.29607 10.3908 8.50501 10.2593 8.68608C10.1277 8.86716 9.95619 9.0155 9.75806 9.1196L7.17196 10.4942C6.51062 10.8419 6.0113 11.4342 5.78051 12.1449C5.54972 12.8555 5.60572 13.6282 5.93657 14.2981L7.2247 16.9327C7.32358 17.1335 7.375 17.3544 7.375 17.5782C7.375 17.802 7.32358 18.0229 7.2247 18.2237L5.93376 20.8583C5.60291 21.5282 5.54691 22.3009 5.7777 23.0115C6.00849 23.7222 6.50781 24.3145 7.16915 24.6622L9.76087 26.0368C9.81313 26.0681 9.86338 26.1026 9.91134 26.1402L0.208213 35.8433C0.11937 35.932 0.0559083 36.0429 0.0244207 36.1645C-0.0070668 36.286 -0.0054309 36.4138 0.0291585 36.5345C0.0637478 36.6552 0.130029 36.7644 0.221114 36.8508C0.3122 36.9373 0.424767 36.9977 0.547119 37.0259L6.58204 38.4188L7.97493 44.4537C8.00314 44.5761 8.0636 44.6887 8.15002 44.7798C8.23645 44.8708 8.34569 44.9371 8.46639 44.9717C8.58709 45.0063 8.71486 45.0079 8.83641 44.9764C8.95796 44.945 9.06886 44.8815 9.15759 44.7927L20.0441 33.9055L20.5004 34.3477C21.0354 34.8693 21.7529 35.1612 22.5001 35.1612C23.2472 35.1612 23.9648 34.8693 24.4998 34.3477L24.9561 33.9055L35.8447 44.7941C35.9334 44.8829 36.0443 44.9464 36.1659 44.9779C36.2874 45.0093 36.4152 45.0077 36.5359 44.9731C36.6566 44.9385 36.7658 44.8722 36.8523 44.7812C36.9387 44.6901 36.9991 44.5775 37.0274 44.4552L38.4202 38.4202L44.4552 37.0273C44.5775 36.9991 44.6901 36.9387 44.7812 36.8522C44.8723 36.7658 44.9385 36.6566 44.9731 36.5359C45.0077 36.4152 45.0094 36.2874 44.9779 36.1659C44.9464 36.0443 44.8829 35.9334 44.7941 35.8447ZM9.05774 42.9027L7.85188 37.6756C7.82228 37.5471 7.75714 37.4295 7.66389 37.3363C7.57064 37.243 7.45305 37.1779 7.32454 37.1483L2.09751 35.9424L10.5849 27.455L11.0258 29.9694C11.1526 30.7053 11.5615 31.3627 12.1655 31.8018C12.7695 32.2409 13.521 32.4271 14.2602 32.3206L17.1641 31.9093C17.3855 31.8788 17.611 31.8988 17.8236 31.9678C18.0362 32.0369 18.2305 32.1532 18.3917 32.308L19.0323 32.9274L9.05774 42.9027ZM21.4784 33.3366L20.5327 32.4226L19.3698 31.2976C18.8362 30.7782 18.121 30.4876 17.3764 30.4876C17.2397 30.4878 17.1032 30.4974 16.9679 30.5164L14.0626 30.9277C13.6847 30.9833 13.3 30.8886 12.991 30.664C12.682 30.4394 12.4733 30.1027 12.4095 29.7261L11.9026 26.8377C11.8404 26.5097 11.7214 26.1951 11.551 25.9081C11.5351 25.8739 11.5166 25.841 11.4955 25.8097C11.233 25.3826 10.8624 25.0323 10.4211 24.7944L7.83009 23.4198C7.49186 23.2425 7.23635 22.94 7.11811 22.5768C6.99988 22.2137 7.02829 21.8188 7.19728 21.4763L8.4854 18.8438C8.67864 18.4507 8.77912 18.0184 8.77912 17.5803C8.77912 17.1422 8.67864 16.71 8.4854 16.3168L7.19728 13.6822C7.02829 13.3397 6.99988 12.9448 7.11811 12.5817C7.23635 12.2185 7.49186 11.916 7.83009 11.7387L10.4204 10.3641C10.808 10.1602 11.1436 9.86988 11.4011 9.51558C11.6586 9.16128 11.8311 8.7525 11.9054 8.32085L12.4124 5.43242C12.475 5.05563 12.6829 4.71845 12.9915 4.49335C13.3001 4.26826 13.6847 4.17322 14.0626 4.22867L16.9672 4.64C17.4006 4.70222 17.8426 4.66416 18.259 4.52873C18.6754 4.39329 19.0552 4.16411 19.3691 3.85882L21.4784 1.81976C21.7516 1.55306 22.1183 1.40376 22.5001 1.40376C22.8819 1.40376 23.2485 1.55306 23.5217 1.81976L25.6311 3.85882C25.9448 4.16418 26.3245 4.39346 26.7408 4.52902C27.157 4.66457 27.5989 4.70278 28.0323 4.6407L30.9376 4.22867C31.3155 4.17294 31.7003 4.26753 32.0093 4.49217C32.3183 4.71681 32.527 5.0536 32.5906 5.43031L33.0976 8.31874C33.1719 8.75029 33.3444 9.15898 33.6018 9.51326C33.8591 9.86755 34.1945 10.1579 34.5819 10.362L37.1729 11.7366C37.5111 11.9139 37.7666 12.2164 37.8849 12.5796C38.0031 12.9427 37.9747 13.3376 37.8057 13.6801L36.5148 16.3126C36.3215 16.7057 36.2211 17.138 36.2211 17.5761C36.2211 18.0142 36.3215 18.4464 36.5148 18.8396L37.8029 21.4742C37.9719 21.8167 38.0003 22.2116 37.8821 22.5747C37.7638 22.9379 37.5083 23.2404 37.1701 23.4177L34.5798 24.7923C34.1922 24.9962 33.8566 25.2865 33.5991 25.6408C33.3416 25.9951 33.1691 26.4039 33.0948 26.8355L32.5878 29.724C32.5244 30.1004 32.3162 30.437 32.0078 30.6619C31.6995 30.8868 31.3154 30.9822 30.9376 30.9277L28.0316 30.5157C27.5981 30.4535 27.1562 30.4916 26.7398 30.627C26.3234 30.7625 25.9436 30.9916 25.6297 31.2969L23.5203 33.3359C23.2473 33.6023 22.881 33.7515 22.4995 33.7516C22.1181 33.7517 21.7517 33.6028 21.4784 33.3366ZM37.6756 37.1483C37.5471 37.1779 37.4295 37.243 37.3363 37.3363C37.243 37.4295 37.1779 37.5471 37.1483 37.6756L35.9424 42.9027L25.9672 32.9274L26.607 32.308C26.7684 32.1533 26.9627 32.0372 27.1752 31.9681C27.3878 31.8991 27.6133 31.879 27.8347 31.9093L30.7393 32.3206C31.4785 32.4272 32.2301 32.2412 32.8341 31.802C33.4382 31.3629 33.8471 30.7054 33.9737 29.9694L34.4145 27.455L42.9027 35.9424L37.6756 37.1483Z" fill="black"/>
<path d="M33.0469 17.5782C33.0473 15.0529 32.141 12.6115 30.4931 10.6981C30.4354 10.621 30.3625 10.5566 30.2789 10.5089C30.1953 10.4611 30.1027 10.4311 30.007 10.4206C29.9113 10.4101 29.8144 10.4194 29.7225 10.4478C29.6305 10.4763 29.5453 10.5233 29.4723 10.5861C29.3992 10.6488 29.3398 10.7259 29.2978 10.8125C29.2557 10.8991 29.2319 10.9934 29.2278 11.0896C29.2237 11.1858 29.2394 11.2819 29.274 11.3717C29.3085 11.4616 29.3611 11.5434 29.4286 11.6121C30.9374 13.3672 31.7234 15.6299 31.6275 17.9424C31.5316 20.2549 30.561 22.4447 28.912 24.0688C27.263 25.693 25.0588 26.6302 22.7451 26.691C20.4314 26.7518 18.1809 25.9316 16.4489 24.3963C14.7169 22.861 13.6327 20.7252 13.4155 18.4209C13.1983 16.1166 13.8643 13.8159 15.2789 11.984C16.6935 10.152 18.751 8.92575 21.0353 8.55311C23.3196 8.18047 25.6602 8.6893 27.5836 9.97668C27.6602 10.0313 27.7469 10.0701 27.8387 10.0907C27.9305 10.1112 28.0254 10.1131 28.118 10.0963C28.2105 10.0795 28.2988 10.0443 28.3775 9.99275C28.4562 9.94122 28.5237 9.87443 28.5761 9.79632C28.6285 9.71822 28.6647 9.63039 28.6826 9.53804C28.7005 9.44569 28.6996 9.35069 28.6801 9.25868C28.6606 9.16666 28.6228 9.07949 28.569 9.00234C28.5152 8.92518 28.4465 8.8596 28.3669 8.80949C26.4128 7.50144 24.0776 6.88393 21.7324 7.05508C19.3871 7.22623 17.1663 8.17622 15.4229 9.75412C13.6794 11.332 12.5132 13.4473 12.1096 15.7639C11.7061 18.0805 12.0882 20.4655 13.1954 22.54C14.3026 24.6145 16.0714 26.2595 18.2206 27.2136C20.3698 28.1678 22.7762 28.3763 25.0575 27.8061C27.3388 27.2359 29.3641 25.9196 30.8117 24.0665C32.2592 22.2134 33.046 19.9296 33.0469 17.5782Z" fill="black"/>
<path d="M26.5608 14.2819L21.082 20.0517L18.458 17.0621C18.399 16.9867 18.3252 16.9242 18.2413 16.8783C18.1573 16.8325 18.0648 16.8042 17.9695 16.7953C17.8742 16.7865 17.7781 16.7971 17.6871 16.8267C17.5961 16.8563 17.5121 16.9041 17.4402 16.9672C17.3683 17.0304 17.3101 17.1076 17.269 17.194C17.228 17.2805 17.2051 17.3744 17.2016 17.4701C17.1982 17.5657 17.2143 17.661 17.249 17.7502C17.2836 17.8394 17.3361 17.9206 17.4033 17.9888L20.5315 21.5571C20.5959 21.6307 20.6749 21.69 20.7636 21.7313C20.8522 21.7726 20.9484 21.7949 21.0462 21.7969H21.0602C21.1556 21.7968 21.25 21.7773 21.3377 21.7396C21.4253 21.7019 21.5044 21.6468 21.57 21.5775L27.5782 15.2494C27.6452 15.1832 27.6983 15.1041 27.7341 15.017C27.77 14.9298 27.788 14.8364 27.7871 14.7422C27.7861 14.6479 27.7662 14.5548 27.7286 14.4684C27.691 14.3821 27.6363 14.3041 27.568 14.2392C27.4996 14.1744 27.4189 14.1239 27.3307 14.0908C27.2424 14.0578 27.1484 14.0428 27.0543 14.0468C26.9601 14.0507 26.8678 14.0736 26.7826 14.114C26.6975 14.1544 26.6213 14.2115 26.5587 14.2819H26.5608Z" fill="black"/>
</g>
<defs>
<clipPath id="clip0_53_258">
<rect width="45" height="45" fill="white"/>
</clipPath>
</defs>
</svg>
